<?xml version="1.0" encoding="UTF-8" standalone="no"?>
<svg
   version="1.1"
   id="svg2"
   width="499.20001"
   height="192"
   viewBox="0 0 499.20001 192"
   xmlns="http://www.w3.org/2000/svg"
   xmlns:svg="http://www.w3.org/2000/svg">
  <defs
     id="defs6" />
  <g
     id="g8"
     transform="matrix(1.3333333,0,0,-1.3333333,0,192)">
    <g
       id="g10"
       transform="scale(0.1)">
      <path
         d="m 1518.36,893.801 c 24.69,0 46.13,21.433 46.13,47.527 0,24.695 -21.44,45.203 -46.13,45.203 h -75.95 v -92.73 z m -136.99,139.789 c 0,4.65 3.73,8.85 8.86,8.85 h 133.25 c 55.92,0 101.59,-44.737 101.59,-100.174 0,-42.871 -28.43,-77.825 -68.97,-94.121 l 63.84,-118.348 c 3.26,-6.059 0,-13.52 -7.92,-13.52 h -48.93 c -4.19,0 -6.52,2.336 -7.45,4.203 l -61.98,123.465 h -51.71 V 725.137 c 0,-4.657 -4.19,-8.86 -8.86,-8.86 h -42.86 c -5.13,0 -8.86,4.203 -8.86,8.86 v 308.453"
         style="fill:#185d84;fill-opacity:1;fill-rule:nonzero;stroke:none"
         id="path12" />
      <path
         d="m 1691.7,1033.59 c 0,4.65 3.72,8.85 8.85,8.85 h 189.64 c 5.12,0 8.85,-4.2 8.85,-8.85 v -38.207 c 0,-4.66 -3.73,-8.852 -8.85,-8.852 h -137.92 v -76.426 h 115.09 c 4.65,0 8.85,-4.187 8.85,-8.843 V 862.59 c 0,-5.129 -4.2,-8.86 -8.85,-8.86 h -115.09 v -81.535 h 137.92 c 5.12,0 8.85,-4.187 8.85,-8.855 v -38.203 c 0,-4.657 -3.73,-8.86 -8.85,-8.86 h -189.64 c -5.13,0 -8.85,4.203 -8.85,8.86 v 308.453"
         style="fill:#185d84;fill-opacity:1;fill-rule:nonzero;stroke:none"
         id="path14" />
      <path
         d="m 2108.26,1047.1 c 41.94,0 82.01,-16.31 113.69,-43.33 3.73,-3.73 4.2,-9.317 0.47,-13.047 l -28.89,-30.285 c -3.73,-3.727 -7.92,-3.727 -12.12,0 -20.03,17.707 -44.72,27.023 -70.35,27.023 -58.24,0 -104.37,-49.863 -104.37,-108.098 0,-57.781 46.13,-106.695 104.83,-106.695 26.1,0 46.13,7.918 55.45,11.641 v 39.609 h -37.27 c -5.13,0 -8.85,3.719 -8.85,8.387 v 36.804 c 0,5.129 3.72,8.852 8.85,8.852 h 89.46 c 4.66,0 8.39,-4.191 8.39,-8.852 V 749.836 c 0,-3.731 -1.87,-6.059 -3.73,-7.465 0,0 -47.99,-30.281 -115.56,-30.281 -92.72,0 -167.27,73.625 -167.27,166.805 0,93.183 74.55,168.205 167.27,168.205"
         style="fill:#185d84;fill-opacity:1;fill-rule:nonzero;stroke:none"
         id="path16" />
      <path
         d="m 2296.04,1033.59 c 0,4.65 4.2,8.85 8.86,8.85 h 43.33 c 4.66,0 8.86,-4.2 8.86,-8.85 V 725.137 c 0,-4.657 -4.2,-8.86 -8.86,-8.86 h -43.33 c -4.66,0 -8.86,4.203 -8.86,8.86 v 308.453"
         style="fill:#185d84;fill-opacity:1;fill-rule:nonzero;stroke:none"
         id="path18" />
      <path
         d="m 2585.87,772.195 c 58.7,0 107.16,47.993 107.16,106.7 0,58.703 -48.46,107.636 -107.16,107.636 -58.71,0 -106.71,-48.933 -106.71,-107.636 0,-58.707 48,-106.7 106.71,-106.7 z m 0,274.905 c 93.18,0 167.73,-75.022 167.73,-168.205 0,-93.18 -74.55,-167.274 -167.73,-167.274 -93.2,0 -167.28,74.094 -167.28,167.274 0,93.183 74.08,168.205 167.28,168.205"
         style="fill:#185d84;fill-opacity:1;fill-rule:nonzero;stroke:none"
         id="path20" />
      <path
         d="m 2814.65,1038.71 c 0,4.66 4.19,8.39 8.85,8.39 h 11.64 l 193.84,-205.948 h 0.47 v 192.438 c 0,4.65 3.72,8.85 8.85,8.85 h 42.86 c 4.67,0 8.86,-4.2 8.86,-8.85 V 720.012 c 0,-4.66 -4.19,-8.391 -8.86,-8.391 h -11.17 l -194.77,213.867 h -0.47 V 725.137 c 0,-4.657 -3.73,-8.86 -8.85,-8.86 h -42.4 c -4.66,0 -8.85,4.203 -8.85,8.86 v 313.573"
         style="fill:#185d84;fill-opacity:1;fill-rule:nonzero;stroke:none"
         id="path22" />
      <path
         d="m 3333.72,827.637 -46.59,102.508 h -1.4 l -45.66,-102.508 z m -201.29,-99.239 144.91,313.572 c 1.4,2.8 3.72,5.13 7.92,5.13 h 4.66 c 4.66,0 6.52,-2.33 7.92,-5.13 l 143.51,-313.572 c 2.8,-6.054 -0.92,-12.121 -7.92,-12.121 h -40.53 c -6.99,0 -10.26,2.793 -13.52,9.328 l -22.83,50.325 h -139.32 l -22.83,-50.325 c -1.86,-4.66 -6.05,-9.328 -13.5,-9.328 h -40.55 c -6.98,0 -10.71,6.067 -7.92,12.121"
         style="fill:#185d84;fill-opacity:1;fill-rule:nonzero;stroke:none"
         id="path24" />
      <path
         d="m 3483.76,1033.59 c 0,4.65 3.73,8.85 8.86,8.85 h 42.86 c 4.65,0 8.85,-4.2 8.85,-8.85 V 772.195 h 118.81 c 5.13,0 8.86,-4.187 8.86,-8.855 v -38.203 c 0,-4.657 -3.73,-8.86 -8.86,-8.86 h -170.52 c -5.13,0 -8.86,4.203 -8.86,8.86 v 308.453"
         style="fill:#185d84;fill-opacity:1;fill-rule:nonzero;stroke:none"
         id="path26" />
      <path
         d="m 1455.37,430.789 c 14.8,0 26.64,11.547 26.64,26.938 0,14.8 -14.8,25.75 -30.19,25.75 h -32.26 v -52.688 z m -4.14,85.258 c 15.1,0 25.46,11.836 25.46,26.629 0,14.804 -10.36,25.168 -25.46,25.168 h -31.67 v -51.797 z m -69.86,81.394 c 0,2.957 2.37,5.618 5.63,5.618 h 67.78 c 35.22,0 62.46,-23.672 62.46,-54.746 0,-22.805 -18.65,-40.559 -32.56,-47.075 15.68,-5.039 38.48,-21.011 38.48,-48.25 0,-33.148 -28.42,-57.117 -64.53,-57.117 H 1387 c -3.26,0 -5.63,2.668 -5.63,5.609 v 195.961"
         style="fill:#185d84;fill-opacity:1;fill-rule:nonzero;stroke:none"
         id="path28" />
      <path
         d="m 1710.25,508.633 c 15.69,0 29.3,13.625 29.3,30.195 0,15.692 -13.61,28.723 -29.3,28.723 H 1662 v -58.918 z m -87.02,88.808 c 0,2.957 2.36,5.618 5.62,5.618 h 84.65 c 35.52,0 64.53,-28.411 64.53,-63.633 0,-27.231 -18.05,-49.438 -43.8,-59.785 l 40.55,-75.192 c 2.07,-3.84 0,-8.578 -5.04,-8.578 h -31.08 c -2.66,0 -4.14,1.469 -4.73,2.668 l -39.37,78.426 h -32.85 V 401.48 c 0,-2.941 -2.67,-5.609 -5.63,-5.609 h -27.23 c -3.26,0 -5.62,2.668 -5.62,5.609 v 195.961"
         style="fill:#185d84;fill-opacity:1;fill-rule:nonzero;stroke:none"
         id="path30" />
      <path
         d="m 1971.04,431.391 c 37.3,0 68.09,30.472 68.09,67.781 0,37.293 -30.79,68.379 -68.09,68.379 -37.29,0 -67.78,-31.086 -67.78,-68.379 0,-37.309 30.49,-67.781 67.78,-67.781 z m 0,174.632 c 59.2,0 106.57,-47.656 106.57,-106.851 0,-59.203 -47.37,-106.274 -106.57,-106.274 -59.2,0 -106.26,47.071 -106.26,106.274 0,59.195 47.06,106.851 106.26,106.851"
         style="fill:#185d84;fill-opacity:1;fill-rule:nonzero;stroke:none"
         id="path32" />
      <path
         d="m 2275.07,466.609 -29.6,65.121 h -0.89 l -29.02,-65.121 z m -127.87,-63.058 92.05,199.215 c 0.88,1.777 2.37,3.257 5.03,3.257 h 2.96 c 2.96,0 4.14,-1.48 5.03,-3.257 l 91.17,-199.215 c 1.77,-3.84 -0.59,-7.68 -5.03,-7.68 h -25.76 c -4.43,0 -6.5,1.77 -8.58,5.91 l -14.5,31.969 h -88.51 l -14.5,-31.969 c -1.18,-2.949 -3.85,-5.91 -8.58,-5.91 h -25.76 c -4.43,0 -6.8,3.84 -5.02,7.68"
         style="fill:#185d84;fill-opacity:1;fill-rule:nonzero;stroke:none"
         id="path34" />
      <path
         d="m 2501.53,431.969 c 38.48,0 66.6,29.015 66.6,67.789 0,38.484 -28.12,67.488 -66.6,67.488 h -33.75 V 431.969 Z m -71.93,165.472 c 0,2.957 2.37,5.618 5.33,5.618 h 70.15 c 57.12,0 103.89,-46.465 103.89,-103.301 0,-57.422 -46.77,-103.887 -103.89,-103.887 h -70.15 c -2.96,0 -5.33,2.668 -5.33,5.609 v 195.961"
         style="fill:#185d84;fill-opacity:1;fill-rule:nonzero;stroke:none"
         id="path36" />
      <path
         d="m 2781.28,430.789 c 14.79,0 26.64,11.547 26.64,26.938 0,14.8 -14.81,25.75 -30.2,25.75 h -32.26 v -52.688 z m -4.15,85.258 c 15.09,0 25.46,11.836 25.46,26.629 0,14.804 -10.37,25.168 -25.46,25.168 h -31.67 v -51.797 z m -69.86,81.394 c 0,2.957 2.38,5.618 5.63,5.618 h 67.78 c 35.23,0 62.46,-23.672 62.46,-54.746 0,-22.805 -18.65,-40.559 -32.56,-47.075 15.69,-5.039 38.48,-21.011 38.48,-48.25 0,-33.148 -28.42,-57.117 -64.53,-57.117 h -71.63 c -3.25,0 -5.63,2.668 -5.63,5.609 v 195.961"
         style="fill:#185d84;fill-opacity:1;fill-rule:nonzero;stroke:none"
         id="path38" />
      <path
         d="m 3050.06,466.609 -29.6,65.121 h -0.89 l -29.01,-65.121 z m -127.87,-63.058 92.05,199.215 c 0.89,1.777 2.37,3.257 5.04,3.257 h 2.95 c 2.96,0 4.14,-1.48 5.03,-3.257 l 91.18,-199.215 c 1.77,-3.84 -0.6,-7.68 -5.04,-7.68 h -25.76 c -4.43,0 -6.51,1.77 -8.58,5.91 l -14.49,31.969 h -88.52 l -14.5,-31.969 c -1.18,-2.949 -3.84,-5.91 -8.58,-5.91 h -25.76 c -4.44,0 -6.8,3.84 -5.02,7.68"
         style="fill:#185d84;fill-opacity:1;fill-rule:nonzero;stroke:none"
         id="path40" />
      <path
         d="m 3204.6,600.691 c 0,2.961 2.65,5.332 5.62,5.332 h 7.4 l 123.13,-130.828 h 0.3 v 122.246 c 0,2.957 2.37,5.618 5.62,5.618 h 27.23 c 2.96,0 5.63,-2.661 5.63,-5.618 V 398.23 c 0,-2.96 -2.67,-5.332 -5.63,-5.332 h -7.1 L 3243.07,528.77 h -0.29 V 401.48 c 0,-2.941 -2.37,-5.609 -5.62,-5.609 h -26.94 c -2.97,0 -5.62,2.668 -5.62,5.609 v 199.211"
         style="fill:#185d84;fill-opacity:1;fill-rule:nonzero;stroke:none"
         id="path42" />
      <path
         d="m 3564.55,431.969 c 38.48,0 66.6,29.015 66.6,67.789 0,38.484 -28.12,67.488 -66.6,67.488 h -33.74 V 431.969 Z m -71.93,165.472 c 0,2.957 2.37,5.618 5.34,5.618 h 70.14 c 57.13,0 103.9,-46.465 103.9,-103.301 0,-57.422 -46.77,-103.887 -103.9,-103.887 h -70.14 c -2.97,0 -5.34,2.668 -5.34,5.609 v 195.961"
         style="fill:#185d84;fill-opacity:1;fill-rule:nonzero;stroke:none"
         id="path44" />
      <path
         d="m 379.836,285.121 -5.844,48.43 -4.355,36.148 C 232.164,458.816 157.234,623.02 184.648,788.484 c 2.872,17.329 6.727,34.661 11.887,51.926 5.16,17.266 11.449,33.875 18.555,49.934 69.066,156.046 225.973,252.806 393.004,248.406 l 54.492,69.38 C 434.113,1239.02 210.645,1105.34 133.055,883.059 L 72,877.637 120.066,839.602 C 63.3008,612.605 175.051,379.75 380.555,279.16 l -0.719,5.961 v 0"
         style="fill:#fbbc09;fill-opacity:1;fill-rule:nonzero;stroke:none"
         id="path46" />
      <path
         d="m 1074.48,601.68 c 57.11,228.398 -56.35,462.77 -264.296,562.34 l 7.496,-87.91 c 142.039,-87.985 220.1,-254.977 192.22,-423.317 -2.88,-17.324 -6.73,-34.656 -11.892,-51.926 C 992.84,583.605 986.555,566.992 979.445,550.93 911.57,397.582 758.855,301.441 595.063,302.34 l -23.489,-27.828 -6.32,-7.5 -29.004,-34.371 c 226.973,-28.653 448.137,104.691 525.24,325.582 l 61.05,5.422 -48.06,38.035"
         style="fill:#fbbc09;fill-opacity:1;fill-rule:nonzero;stroke:none"
         id="path48" />
      <path
         d="m 590.828,699.023 c -57.816,17.278 -116.254,24.012 -173.336,21.582 -13.644,-0.585 -27.207,-1.652 -40.664,-3.281 l 0.016,-0.144 10.504,-87.063 c 58.136,7.039 118.632,2.586 178.328,-15.254 59.703,-17.843 112.722,-47.304 157.461,-85.097 l 56.551,67.019 0.089,0.11 c -10.351,8.75 -21.101,17.089 -32.191,25.058 -46.387,33.36 -98.934,59.785 -156.758,77.07"
         style="fill:#185d84;fill-opacity:1;fill-rule:nonzero;stroke:none"
         id="path50" />
      <path
         d="m 429.41,281.27 10.516,-87.18 56.629,67.121 c -8.95,7.559 -19.535,13.469 -31.481,17.027 -11.937,3.582 -24.031,4.453 -35.664,3.032"
         style="fill:#185d84;fill-opacity:1;fill-rule:nonzero;stroke:none"
         id="path52" />
      <path
         d="m 411.898,426.512 10.508,-87.121 c 19.379,2.347 39.535,0.898 59.438,-5.039 19.902,-5.954 37.551,-15.813 52.465,-28.403 l 56.589,67.071 c -23.871,20.191 -52.089,35.968 -83.902,45.492 -31.812,9.5 -64.066,11.789 -95.098,8"
         style="fill:#185d84;fill-opacity:1;fill-rule:nonzero;stroke:none"
         id="path54" />
      <path
         d="m 394.367,571.875 10.5,-87.102 c 38.766,4.7 79.098,1.731 118.891,-10.164 39.805,-11.894 75.152,-31.543 104.976,-56.738 l 56.579,67.051 c -38.778,32.812 -84.704,58.391 -136.403,73.84 -51.695,15.449 -104.121,19.265 -154.543,13.113"
         style="fill:#185d84;fill-opacity:1;fill-rule:nonzero;stroke:none"
         id="path56" />
      <path
         d="M 804.91,651.785 754.266,1245.91 385.93,777.004 c 72.601,6.812 147.625,0.254 221.668,-21.875 74.043,-22.133 140.363,-57.805 197.312,-103.344"
         style="fill:#185d84;fill-opacity:1;fill-rule:nonzero;stroke:none"
         id="path58" />
      <path
         d="M 754.266,1245.91 804.91,651.785 c -56.949,45.539 -123.269,81.211 -197.312,103.344 l 146.668,490.781"
         style="fill:#327fa0;fill-opacity:1;fill-rule:nonzero;stroke:none"
         id="path60" />
    </g>
  </g>
</svg>